<svg width="40" height="27" viewBox="0 0 40 27" fill="none" xmlns="http://www.w3.org/2000/svg">
<path d="M25.1963 26.217H21.4531L19.2798 16.2497H19.1987L16.5843 26.217H13.0032L16.6654 12.962L13 0H16.7789L19.1987 9.6743H19.2798L21.6931 0H25.2742L21.8164 12.962L25.1963 26.217Z" fill="#304c70"/>
<path d="M9.19266 10.925L9.18942 14.2615H4.08058V26.2177H0V0.000732422H10.6426L11.5443 3.27216H4.08058V10.925H9.19266Z" fill="#304c70"/>
<path d="M34.7619 6.5325L34.7761 4.74175C34.7846 3.70274 34.2118 3.26781 32.967 3.25707L32.3007 3.2517C31.0871 3.24096 30.5029 3.74838 30.4944 4.78739L30.4604 8.93268C30.4547 9.41594 30.537 9.8294 30.7723 9.99854C31.0048 10.1704 31.3905 10.3932 31.9207 10.6617L35.9471 12.4739C36.8318 12.8927 37.4585 13.2176 37.8271 13.4512C38.1957 13.6847 38.4821 13.964 38.6863 14.2915C38.8904 14.619 38.9897 15.2419 38.9812 16.1628L38.9358 21.7095C38.9103 24.6359 37.1806 26.083 33.7468 26.0535L31.1239 26.032C27.7185 26.0025 26.0285 24.3943 26.054 21.2021L26.0597 19.4785L30.3441 19.5161L30.3527 21.2988C30.3441 22.3163 30.9509 22.7834 32.2269 22.7942L32.9698 22.7995C34.0955 22.8103 34.6258 22.3995 34.6343 21.3847L34.6712 16.9494C34.6768 16.4662 34.6003 16.152 34.3621 15.9802C34.1267 15.8084 33.7439 15.5882 33.2109 15.3171L29.1844 13.4351C28.2969 13.0404 27.6561 12.7075 27.2591 12.439C26.8621 12.1678 26.5757 11.8215 26.4028 11.3973C26.2298 10.9758 26.1447 10.4227 26.1504 9.74617L26.1958 4.41689C26.2213 1.44216 27.9368 -0.0290967 31.3423 0.000435853L34.0076 0.0245987C37.4159 0.0541312 39.1059 1.55492 39.0804 4.52965L39.0634 6.57813L34.7619 6.5325Z" fill="#E38506"/>
</svg>
